<svg width="28" height="51" fill="none" xmlns="http://www.w3.org/2000/svg"><path d="M14.097.762A1.436 1.436 0 0012.828 0H1.438A1.437 1.437 0 00.17 2.111l12.647 23.786 3.47-.038c.718 0 2.873 0 4.31.038l6.465-.038c-.017-.144.068-.584-.304-1.285L14.097.762z" fill="url(#paint0_linear_82_116)"/><path d="M14.519 50.238c-.25.469-.738.762-1.269.762H1.86a1.437 1.437 0 01-1.268-2.111l12.225-22.992 3.47-.038c.718 0 2.873 0 4.31.038l6.465-.038s0 .257-.082.75c-.032.193-.1.38-.192.553l-12.27 23.076z" fill="url(#paint1_linear_82_116)"/><defs><linearGradient id="paint0_linear_82_116" x1="13.531" y1="0" x2="14.008" y2="50.996" gradientUnits="userSpaceOnUse"><stop stop-color="#D88600"/><stop offset="1" stop-color="#D88600" stop-opacity=".5"/></linearGradient><linearGradient id="paint1_linear_82_116" x1="13.531" y1="0" x2="14.008" y2="50.996" gradientUnits="userSpaceOnUse"><stop stop-color="#D88600"/><stop offset="1" stop-color="#D88600" stop-opacity=".5"/></linearGradient></defs></svg>