<svg width="36" height="36" fill="none" xmlns="http://www.w3.org/2000/svg"><path d="M36 18c0 2.102-.366 4.12-1.027 6.005C32.491 30.987 25.826 36 18 36c-7.826 0-14.491-5.013-16.973-11.995A18.1 18.1 0 010 18a18.1 18.1 0 011.027-6.005C3.509 5.013 10.174 0 18 0c7.826 0 14.491 5.013 16.973 11.995A18.099 18.099 0 0136 18z" fill="#fff"/><path d="M34.974 11.995H1.026C3.509 5.013 10.174 0 18 0c7.826 0 14.492 5.013 16.974 11.995z" fill="#F93"/><path d="M34.974 24.005C32.492 30.987 25.826 36 18 36c-7.826 0-14.491-5.013-16.973-11.995h33.947z" fill="#128807"/><path d="M18.64 18.542l.014-.007.007-.008.014-.014c.007-.007.007-.014.007-.014l.014-.014.007-.007.014-.014.007-.007.654.5 2.271 1.145-2.123-1.399-.753-.316.008-.007.007-.014s.006-.007.006-.014l.008-.014s.007-.007.007-.014l.007-.014.007-.014.007-.015.007-.014v-.007l.76.31 2.488.52-2.412-.802-.808-.112.007-.007v-.014c0-.007.007-.007.007-.007v-.014l.007-.014v-.007l.007-.014v-.057l.816.099 2.538-.148-2.538-.147-.816.098v-.035l-.007-.014v-.007l-.007-.021v-.007c0-.008-.007-.014-.007-.014v-.015l-.007-.014.808-.112 2.412-.795-2.489.52-.76.31v-.007l-.006-.014-.007-.014v-.007l-.007-.014c-.007-.007-.007-.014-.007-.014-.007-.007-.007-.014-.007-.014l-.008-.014-.006-.014-.008-.008.753-.316 2.123-1.392-2.27 1.146-.655.492c0-.007-.007-.007-.007-.007l-.014-.014-.007-.014-.007-.007-.007-.007-.014-.014-.007-.007-.014-.014-.007-.014-.007-.007.647-.5 1.694-1.898-1.912 1.688-.506.646-.008-.007-.014-.007-.007-.007-.007-.007-.014-.014-.014-.014-.007-.007-.014-.007-.014-.007-.007-.007.492-.654 1.146-2.27-1.399 2.123-.316.752-.007-.007c-.007 0-.007-.007-.007-.007l-.014-.007-.015-.007-.014-.007-.014-.007-.014-.007-.014-.007-.014-.007-.014-.008.31-.759.52-2.489-.795 2.412-.112.808h-.007c-.007-.007-.014-.007-.014-.007l-.014-.007h-.014l-.014-.007h-.022l-.014-.007h-.028l.099-.808L18 13.774l-.148 2.539.099.808h-.021l-.014.007h-.029l-.014.007h-.014l-.014.007s-.007 0-.014.007h-.007l-.112-.808-.795-2.412.52 2.49.31.758-.014.008-.014.007-.014.007-.014.007s-.007.007-.014.007l-.014.007-.015.007-.007.007c-.007.007-.014.007-.014.007l-.014.007-.316-.753-1.392-2.123 1.146 2.271.492.654-.007.007-.014.014c-.007 0-.007.007-.007.007l-.014.007-.014.014-.014.007-.007.007-.007.007-.014.007-.008.007-.506-.646-1.891-1.695 1.694 1.899.647.499-.007.007-.007.014-.007.007-.007.014-.014.014s-.007.007-.007.014l-.007.007-.007.014-.014.014-.007.007-.654-.492-2.271-1.146 2.123 1.392.753.317c0 .007-.007.007-.007.007l-.007.014-.007.014-.008.007-.007.014-.006.014-.008.007-.007.014-.007.014v.007l-.759-.31-2.49-.52 2.42.795.808.112-.007.014v.014l-.007.014v.008l-.007.014v.014l-.007.014v.035l-.816-.099-2.538.148 2.539.148.815-.099v.043l.007.007v.014l.007.014v.014s.007.007.007.014v.014l.007.007-.808.112-2.42.802 2.49-.52.76-.31v.014l.006.014.007.014.008.014c0 .008.006.008.006.008l.008.02.007.015c0 .007.007.007.007.007l.007.014.007.007-.753.316-2.123 1.4 2.271-1.147.654-.499.007.007a.022.022 0 01.007.014l.007.014.007.007.014.014.014.015.007.006s.007.008.014.008c0 0 .007.007.007.014l.007.007-.647.506-1.694 1.891 1.891-1.687.507-.647c.007 0 .007.007.007.007a.022.022 0 00.014.007l.014.014.007.007.014.014.014.007.007.007s.007.007.014.007l.014.007.007.007-.492.654-1.146 2.271 1.392-2.123.316-.753.007.008a.022.022 0 00.014.007l.008.007.014.007.014.007.007.007.014.007.014.007s.007.007.014.007l.014.007-.31.76-.52 2.488.795-2.412.112-.808.007.007h.014l.014.007h.014l.014.007h.015l.007.007h.035l-.099.816.148 2.538.148-2.538-.099-.816h.035s.007 0 .007-.007h.014l.015-.007h.006l.015-.007h.014l.007-.007.112.808.795 2.412-.52-2.489-.31-.76.014-.006.007-.007.014-.007.014-.007.014-.007.014-.007.014-.007.008-.007.014-.008.007-.006.316.752 1.4 2.123-1.147-2.27-.492-.655.007-.007.014-.007.014-.007.007-.007.014-.014.014-.014.007-.007.007-.007.014-.014.007-.007.507.647 1.891 1.687-1.666-1.87-.647-.506.007-.007c.007-.007.014-.007.014-.014z" fill="#008"/><path d="M18 13.184A4.815 4.815 0 0013.184 18 4.82 4.82 0 0018 22.816 4.82 4.82 0 0022.816 18 4.815 4.815 0 0018 13.184zm4.113 5.59l.028.006a4.069 4.069 0 01-.175.654c-.099-.042-.218-.007-.268.085a.211.211 0 00.078.295.1.1 0 00.028.014c-.098.204-.211.4-.338.584a.216.216 0 00-.288.014c-.077.077-.077.218 0 .302l.021.021c-.147.176-.31.33-.478.478a.217.217 0 00-.281-.056c-.099.063-.14.19-.078.288.008.014.015.014.015.014a2.688 2.688 0 01-.584.345.212.212 0 00-.253-.127c-.113.036-.183.148-.148.26l.007.029c-.21.07-.429.133-.654.175a.208.208 0 00-.21-.19.207.207 0 00-.212.212l.008.028c-.113.007-.218.014-.331.014-.12 0-.232-.007-.345-.014a.212.212 0 00-.154-.24.204.204 0 00-.26.148l-.007.028a4.066 4.066 0 01-.654-.175.213.213 0 00-.085-.268.207.207 0 00-.288.078.106.106 0 00-.014.02 3.662 3.662 0 01-.584-.33.224.224 0 00-.014-.288.235.235 0 00-.31 0s-.013.014-.013.021a5.113 5.113 0 01-.478-.478.209.209 0 00.056-.274c-.063-.106-.19-.14-.288-.078-.014.008-.014.015-.014.015a2.836 2.836 0 01-.345-.584.212.212 0 00.127-.253.207.207 0 00-.26-.148c-.014 0-.022.007-.036.007a5.178 5.178 0 01-.175-.647c.112-.014.197-.098.197-.21a.214.214 0 00-.218-.212s-.015 0-.029.008c-.007-.113-.014-.218-.014-.33 0-.12.007-.233.014-.346a.217.217 0 00.24-.154.213.213 0 00-.155-.26l-.042-.028a3.82 3.82 0 01.175-.647.206.206 0 00.268-.092c.063-.098.02-.232-.078-.288l-.028-.014c.098-.204.211-.394.338-.584.084.064.21.064.288-.014a.226.226 0 000-.302l-.014-.014a3.42 3.42 0 01.47-.485.216.216 0 00.282.056c.099-.056.14-.19.077-.288l-.014-.021c.183-.127.38-.24.584-.338a.212.212 0 00.253.127c.113-.036.183-.148.148-.26 0 0-.007-.022-.007-.036.21-.07.429-.133.654-.168.014.105.098.19.21.19.12 0 .212-.099.212-.211v-.022c.105-.02.21-.02.323-.02.12 0 .232.006.352.013a.221.221 0 00.154.24.214.214 0 00.26-.155s.007-.021.007-.028c.225.042.443.098.654.175a.222.222 0 00.085.275.213.213 0 00.288-.078l.014-.028c.204.099.4.211.584.345a.205.205 0 00.014.28.212.212 0 00.302 0l.021-.02c.169.148.33.31.478.478a.216.216 0 00-.056.281c.063.099.19.14.288.078l.021-.014c.127.182.24.38.338.583a.215.215 0 00-.127.253.22.22 0 00.26.155l.029-.014c.07.21.133.429.175.654a.208.208 0 00-.19.21c0 .12.092.212.212.212h.028c.007.105.014.21.014.323 0 .12-.007.232-.014.352a.212.212 0 00-.24.154.246.246 0 00.17.253z" fill="#008"/></svg>