<svg width="90" height="24" fill="none" xmlns="http://www.w3.org/2000/svg"><path d="M1.883 5.124h3.275v12.325h5.775v2.197h-9.05V5.124zM15.565 6.74c0 .905-.668 1.638-1.767 1.638-1.034 0-1.702-.733-1.702-1.638 0-.927.69-1.638 1.745-1.638 1.056 0 1.703.712 1.724 1.638zm-3.383 12.906V9.857h3.275v9.79h-3.275zm5.322-6.614c0-1.315-.044-2.227-.086-3.175h2.987l.008 1.279h.064c.431-.69 1.487-1.702 3.254-1.702 2.155 0 3.77 1.443 3.77 4.546v5.666h-3.274v-5.278c0-1.358-.474-2.284-1.66-2.284-.905 0-1.443.625-1.68 1.228-.087.216-.108.517-.108.819v5.516h-3.275v-6.615zm15.32 1.077h.043c.236-.452.495-.883.754-1.271l2.133-2.98h3.943l-3.77 4.079 4.309 5.71h-4.03l-2.564-3.771-.819 1.034v2.736h-3.275V4.348h3.276v9.761z" fill="#fff"/><path d="M42.864 15.984c.086 1.357 1.444 2.004 2.974 2.004 1.12 0 2.025-.151 2.909-.453l.43 1.659c-1.077.452-2.39.668-3.813.668-3.577 0-5.624-1.508-5.624-4.805 0-2.672 1.66-5.25 5.322-5.25 3.405 0 4.698 2.276 4.698 4.884 0 .56-.065 1.055-.108 1.292h-6.788zm3.857-2.241c0-.797-.345-2.133-1.853-2.133-1.379 0-1.94 1.271-2.025 2.133h3.878zm14.817-9.395v12.713c0 1.185.044 1.874.087 2.585h-2.91l-.129-1.53h-.064c-.647 1.164-1.94 1.767-3.297 1.767-2.5 0-4.503-1.572-4.503-4.847-.022-3.556 2.197-5.624 4.718-5.624 1.315 0 2.306.474 2.78 1.185h.043V4.348h3.275zm-3.275 9.783c0-.173 0-.41-.043-.604-.194-.862-.905-1.594-1.918-1.594-1.508 0-2.262 1.336-2.262 2.995 0 1.788.883 2.909 2.24 2.909.949 0 1.725-.647 1.919-1.573.043-.237.064-.496.064-.754v-1.38zM85.922 1.217h-19.77a.88.88 0 00-.876.877v19.77a.88.88 0 00.877.877h19.77a.88.88 0 00.876-.877V2.094a.88.88 0 00-.877-.877zM72.21 18.777h-2.987v-9.63h2.987v9.63zM70.74 8.081c-.943 0-1.552-.668-1.552-1.493 0-.845.629-1.494 1.592-1.494.963 0 1.553.649 1.572 1.494 0 .825-.61 1.493-1.611 1.493zM83.288 18.78H80.3v-5.146c0-1.239-.432-2.084-1.514-2.084-.825 0-1.316.57-1.532 1.12-.079.197-.099.472-.099.747v5.361h-2.987v-6.363c0-1.199-.04-2.402-.079-3.267h2.954l-.003 1.538h.103c.393-.63 1.093-1.553 2.705-1.553 1.965 0 3.44 1.317 3.44 4.147v5.5z" fill="#fff"/></svg>