<svg width="48" height="48" fill="none" xmlns="http://www.w3.org/2000/svg"><path d="M24 6c-3.375 0-5.648 1.33-7.688 2.438C14.274 9.544 12.422 10.5 9 10.5H7.5V12c0 11.578 3.914 19.113 7.875 23.672 3.96 4.559 8.063 6.234 8.063 6.234l.562.188.563-.188s4.101-1.64 8.062-6.187C36.585 31.172 40.5 23.619 40.5 12v-1.5H39c-3.404 0-5.273-.955-7.313-2.063C29.648 7.33 27.375 6 24 6zm0 3c2.625 0 4.13.92 6.234 2.063 1.776.966 4.131 1.892 7.172 2.203-.287 10.148-3.644 16.6-7.031 20.484-3.07 3.522-5.648 4.693-6.375 5.016-.732-.328-3.305-1.53-6.375-5.063-3.387-3.896-6.744-10.336-7.031-20.437 3.053-.31 5.396-1.237 7.172-2.204C19.869 9.92 21.375 9 24 9z" fill="#fff"/><path d="M22.5 24.422L31.922 15l2.156 2.156-10.5 10.5-1.078 1.032-1.078-1.032-6-6 2.156-2.156 4.922 4.922z" fill="#fff"/></svg>