<svg width="48" height="48" fill="none" xmlns="http://www.w3.org/2000/svg"><path d="M24 6l-.563.234-9 3.61-.937.375v10.078l-8.11 3.515-.89.422v12.094l.75.469 9 5.016.703.374.703-.328L24 37.687l8.344 4.172.703.328.703-.374 9-5.016.75-.469V24.234l-.89-.422-8.11-3.515V10.219l-.938-.375-9-3.61L24 6zm0 3.281l4.922 1.922L24 13.125l-4.922-1.922L24 9.281zm-7.5 4.125l6 2.297v7.313l-6-2.672v-6.938zm15 0v6.938l-6 2.672v-7.313l6-2.297zM15 22.97l5.438 2.39L15 28.031l-5.438-2.718L15 22.968zm18 0l5.438 2.343L33 28.032l-5.438-2.673 1.688-.75L33 22.97zM7.5 27.61l6 3v7.36l-6-3.375V27.61zm33 0v6.985l-6 3.375v-7.36l6-3zm-18 .094v7.36l-6 3V30.61l6-2.906zm3 0l6 2.906v7.453l-6-3v-7.359z" fill="#fff"/></svg>