<svg width="48" height="48" fill="none" xmlns="http://www.w3.org/2000/svg"><path d="M9 4.5v39h30V14.4l-.451-.449-9-9L29.1 4.5H9zm3 3h15v9h9v24H12v-33zm18 2.1l3.9 3.9H30V9.6zm-15 3.9v3h9v-3h-9zm0 6v3h18v-3H15zm5.25 4.5c-1.35 0-2.4.901-3 1.951-.6 1.05-.75 2.4-.75 3.9 0 .9.301 1.798.451 2.698-.6.15-1.201.6-1.951.6v3c1.05 0 2.1-.148 3-.448.15.3.151.45.451.75.6.6 1.499 1.049 2.549 1.049 2.4 0 3.901-1.65 4.951-2.85.15-.3.298-.451.448-.601 0 .15 0 .301.15.451.15.3.3.6.6.9.3.3.901.6 1.351.6.9 0 1.499-.6 1.799-.9.3-.3.602-.751.902-1.051.6-.6 1.05-1.049 1.65-1.049v-3c-1.8 0-3.15 1.051-3.9 1.951 0-.15-.002-.301-.152-.451-.15-.3-.298-.599-.598-1.049-.3-.45-.751-.451-1.201-.451-1.2 0-1.65.751-2.1 1.201a6.65 6.65 0 00-1.199 1.65C22.801 33.9 22.2 34.5 21 34.5c-.15 0-.149-.15-.299-.15.15 0 .149-.149.299-.149 1.65-1.35 3-3.152 3-5.552 0-1.2-.3-2.249-.9-3.149-.6-.9-1.65-1.5-2.85-1.5zm-.15 3c.45 0 .451-.001.601.299.15.3.299.75.299 1.5 0 .9-.451 1.802-1.201 2.552 0-.45-.299-1.051-.299-1.351 0-1.2.151-2.099.451-2.549.15-.3.15-.451.15-.451z" fill="#fff"/></svg>