<svg width="48" height="48" fill="none" xmlns="http://www.w3.org/2000/svg"><path d="M24 4.5c-.938 0-1.87.316-2.672.89l-2.484 1.735-2.86.375h-.046l-.047.047a5.091 5.091 0 00-3.844 3.844l-.047.046v.047l-.375 2.907-1.734 2.25-.047.047v.046c-1.05 1.676-1.096 3.838.047 5.438l1.78 2.484.47 2.578-4.829 7.36-1.546 2.297h7.171l1.735 4.03L15.75 43.5l1.547-2.344 4.734-7.125c1.272.522 2.707.569 3.938 0l4.734 7.125L32.25 43.5l1.078-2.578 1.734-4.031h7.172l-1.547-2.297L36 27.469l.375-2.813 1.734-2.484.047-.047v-.047c1.05-1.676 1.096-3.79-.047-5.39l-1.734-2.485-.563-2.812h.047c-.006-.036-.04-.059-.047-.094-.269-1.963-1.822-3.557-3.796-3.797h-.047l-2.813-.375-2.484-1.734C25.869 4.816 24.937 4.5 24 4.5zm0 3.047c.346 0 .686.105.938.281l2.671 1.922.328.234.375.047 3.282.469h.047c.674.076 1.142.545 1.218 1.219v.094l.61 3.328.047.328.234.281 1.922 2.672c.357.498.404 1.342-.047 2.062l-2.11 2.953-.046.375L33 27.095v.047c-.03.246-.111.474-.234.656l-.094.047v.047a1.32 1.32 0 01-.89.468h-.095l-3.421.61-.375.047-.282.234-2.672 1.922c-.498.357-1.388.404-2.109-.047l-2.437-1.875-.282-.234-.422-.047-3.28-.469h-.048a1.328 1.328 0 01-1.03-.656 1.488 1.488 0 01-.188-.563v-.093l-.61-3.422-.047-.375-.234-.282-1.922-2.672c-.357-.498-.404-1.388.047-2.109l1.875-2.437.234-.282.047-.421.422-3.141c.006-.024.041-.024.047-.047a2.091 2.091 0 011.5-1.5c.023-.006.023-.041.047-.047l3.14-.422.375-.047.329-.234 2.672-1.922A1.67 1.67 0 0124 7.547zm10.36 22.828l2.296 3.516h-3.61l-.374.937-1.031 2.39-3.188-4.874.703-.516 2.953-.515v.046c.035-.006.059-.04.094-.047a4.456 4.456 0 002.156-.937zm-20.72.047a4.277 4.277 0 002.344 1.078h.047l2.86.375.656.516-3.188 4.828-1.03-2.39-.376-.938h-3.61l2.298-3.47z" fill="#fff"/><path d="M19.832 24.143a6.85 6.85 0 01-1.326-.13 4.676 4.676 0 01-1.144-.364c-.277-.13-.472-.29-.585-.481a1.017 1.017 0 01-.13-.585.99.99 0 01.208-.533.934.934 0 01.494-.312c.208-.06.442-.035.702.078.32.139.615.234.884.286.269.052.537.078.806.078a2.5 2.5 0 00.78-.104.932.932 0 00.468-.312.923.923 0 00.156-.546c0-.303-.108-.524-.325-.663-.208-.147-.516-.221-.923-.221h-.702c-.33 0-.58-.082-.754-.247-.173-.165-.26-.399-.26-.702 0-.303.087-.537.26-.702.173-.165.425-.247.754-.247h.468c.251 0 .464-.035.637-.104a.892.892 0 00.416-.299.874.874 0 00.143-.507c0-.286-.104-.503-.312-.65-.2-.147-.498-.221-.897-.221-.243 0-.49.026-.74.078-.252.052-.52.143-.807.273-.225.095-.433.117-.624.065a.896.896 0 01-.455-.299 1.128 1.128 0 01-.208-.507.97.97 0 01.091-.559c.087-.182.251-.334.494-.455a5.16 5.16 0 011.183-.416 6.036 6.036 0 011.3-.143c.685 0 1.27.1 1.755.299.485.2.854.49 1.105.871.26.373.39.823.39 1.352 0 .347-.065.667-.195.962a1.91 1.91 0 01-.572.741c-.251.19-.546.33-.884.416v-.182c.607.095 1.08.351 1.417.767.347.407.52.919.52 1.534 0 .555-.143 1.036-.429 1.443-.286.407-.698.72-1.235.936-.537.208-1.179.312-1.924.312zm8.068 0c-1.127 0-1.993-.412-2.6-1.235-.598-.832-.897-2.006-.897-3.523 0-1.023.134-1.88.403-2.574.269-.702.663-1.23 1.183-1.586.52-.355 1.157-.533 1.911-.533 1.135 0 2.002.399 2.6 1.196.598.797.897 1.959.897 3.484 0 1.014-.134 1.876-.403 2.587-.269.71-.663 1.252-1.183 1.625s-1.157.559-1.911.559zm0-1.898c.416 0 .724-.225.923-.676.208-.46.312-1.192.312-2.197 0-.997-.104-1.707-.312-2.132-.2-.433-.507-.65-.923-.65-.416 0-.728.217-.936.65-.2.425-.299 1.135-.299 2.132 0 1.005.1 1.738.299 2.197.208.45.52.676.936.676z" fill="#fff"/></svg>