<svg width="24" height="24" fill="none" xmlns="http://www.w3.org/2000/svg"><g clip-path="url(#clip0_73_18)" fill="#D88600"><path d="M19.125 12.375a2.434 2.434 0 100-4.867 2.434 2.434 0 000 4.867zm-14.25 0a2.434 2.434 0 100-4.867 2.434 2.434 0 000 4.867zm1.613 2.481A6.716 6.716 0 005.25 18.75h13.5a6.716 6.716 0 00-3.637-5.976 6.75 6.75 0 00-8.616 2.099l-.01-.017z"/><path d="M0 17.25h3.889a8.25 8.25 0 012.572-4.609A4.875 4.875 0 000 17.25zM12 12a3.37 3.37 0 100-6.739A3.37 3.37 0 0012 12zm7.125.375c-.54 0-1.076.09-1.586.266a8.25 8.25 0 012.572 4.609H24a4.875 4.875 0 00-4.875-4.875z"/></g><defs><clipPath id="clip0_73_18"><path fill="#fff" d="M0 0h24v24H0z"/></clipPath></defs></svg>