<svg width="131" height="131" fill="none" xmlns="http://www.w3.org/2000/svg"><path d="M119.81 47.602l-.136-.917-.142.033a24.564 24.564 0 00-31.935-18.116 24.563 24.563 0 007.924 47.815c1.217 0 2.385-.186 3.548-.355-.377 1.266-.764 2.555-1.387 3.712-.622 1.68-1.593 3.138-2.56 4.606-.807 1.589-2.232 2.664-3.28 4.023-1.097 1.321-2.593 2.2-3.777 3.297-1.163 1.146-2.686 1.72-3.897 2.527-1.267.726-2.37 1.529-3.548 1.91l-2.942 1.213-2.588 1.075 2.642 10.583 3.259-.786c1.042-.262 2.314-.567 3.76-.933 1.48-.273 3.057-1.021 4.815-1.703 1.73-.78 3.744-1.299 5.611-2.549 1.878-1.19 4.045-2.183 5.955-3.777 1.85-1.643 4.083-3.068 5.731-5.153 1.802-1.954 3.581-4.006 4.962-6.342 1.599-2.227 2.685-4.673 3.832-7.09 1.037-2.419 1.872-4.891 2.554-7.293 1.294-4.814 1.872-9.388 2.096-13.302.186-3.92.077-7.178-.153-9.536a37.747 37.747 0 00-.344-2.942zm-60.041 0l-.137-.917-.142.033a24.562 24.562 0 10-24.01 29.699c1.216 0 2.385-.186 3.547-.355-.377 1.266-.764 2.555-1.386 3.712-.622 1.68-1.594 3.138-2.56 4.606-.808 1.589-2.233 2.664-3.28 4.023-1.098 1.321-2.593 2.2-3.778 3.297-1.163 1.146-2.685 1.72-3.897 2.527-1.266.726-2.369 1.529-3.548 1.91l-2.942 1.213a364.852 364.852 0 00-2.582 1.064l2.642 10.584 3.259-.786c1.042-.262 2.314-.568 3.76-.934 1.48-.273 3.057-1.021 4.815-1.703 1.73-.78 3.744-1.299 5.61-2.549 1.879-1.19 4.045-2.183 5.956-3.777 1.85-1.643 4.083-3.068 5.731-5.153 1.801-1.954 3.58-4.006 4.962-6.342 1.599-2.227 2.685-4.673 3.831-7.09 1.038-2.419 1.873-4.891 2.555-7.293 1.294-4.814 1.872-9.388 2.096-13.302.186-3.919.076-7.178-.153-9.536a41.333 41.333 0 00-.35-2.93z" fill="#F1F1F0"/></svg>