<svg width="36" height="36" fill="none" xmlns="http://www.w3.org/2000/svg"><path d="M36 18c0 3.276-.864 6.336-2.412 9-3.096 5.4-8.928 9-15.588 9-6.66 0-12.492-3.6-15.588-9A17.806 17.806 0 010 18c0-3.276.864-6.372 2.412-9C5.508 3.6 11.34 0 18 0c6.66 0 12.492 3.6 15.588 9C35.136 11.628 36 14.724 36 18z" fill="#DF1F26"/><path d="M15.66 24.156c.828 0 1.62-.144 2.34-.468-1.44 1.404-3.384 2.232-5.544 2.232a7.897 7.897 0 01-6.876-3.96A7.77 7.77 0 014.5 18a7.77 7.77 0 011.08-3.96 7.941 7.941 0 016.876-3.96c2.16 0 4.104.864 5.544 2.232a6.308 6.308 0 00-2.34-.468c-2.268 0-4.284 1.224-5.328 3.096-.54.9-.828 1.944-.828 3.06s.288 2.16.828 3.096c1.044 1.836 3.06 3.06 5.328 3.06z" fill="#fff"/><path d="M21.024 15.948l2.016-1.044-.396 2.232 1.62 1.584-2.232.324-1.008 2.052-1.008-2.052-2.268-.324 1.62-1.584-.36-2.232 2.016 1.044z" fill="#fff"/></svg>