<svg width="32" height="32" viewBox="0 0 32 32" fill="none" xmlns="http://www.w3.org/2000/svg">
<g opacity="0.5">
<path d="M27.3438 24.1625L19.1812 16L27.3438 7.83749C28.225 6.95624 28.225 5.53749 27.3438 4.65624C26.4625 3.77499 25.0438 3.77499 24.1625 4.65624L16 12.8187L7.8375 4.65624C6.95625 3.77499 5.5375 3.77499 4.65625 4.65624C3.775 5.53749 3.775 6.95624 4.65625 7.83749L12.8188 16L4.65625 24.1625C3.775 25.0437 3.775 26.4625 4.65625 27.3437C5.5375 28.225 6.95625 28.225 7.8375 27.3437L16 19.1812L24.1625 27.3437C25.0438 28.225 26.4625 28.225 27.3438 27.3437C28.2188 26.4625 28.2188 25.0375 27.3438 24.1625Z" fill="white"/>
</g>
</svg>
