<svg width="36" height="36" viewBox="0 0 36 36" fill="none" xmlns="http://www.w3.org/2000/svg">
<path d="M36 18C36 20.1023 35.6344 22.1203 34.9734 24.0047C32.4914 30.9867 25.8258 36 18 36C10.1742 36 3.50859 30.9867 1.02656 24.0047C0.365625 22.1203 0 20.1023 0 18C0 15.8977 0.365625 13.8797 1.02656 11.9953C3.50859 5.01328 10.1742 0 18 0C25.8258 0 32.4914 5.01328 34.9734 11.9953C35.6344 13.8797 36 15.8977 36 18Z" fill="white"/>
<path d="M34.9735 11.9953H1.02661C3.50864 5.01328 10.1743 0 18 0C25.8258 0 32.4915 5.01328 34.9735 11.9953Z" fill="#FF9933"/>
<path d="M34.9735 24.0049C32.4915 30.9869 25.8258 36.0002 18 36.0002C10.1743 36.0002 3.50864 30.9869 1.02661 24.0049H34.9735Z" fill="#128807"/>
<path d="M18.6398 18.5416L18.6539 18.5346L18.6609 18.5275L18.675 18.5135C18.682 18.5064 18.682 18.4994 18.682 18.4994L18.6961 18.4854L18.7031 18.4783C18.7031 18.4783 18.7102 18.4713 18.7172 18.4643L18.7242 18.4572L19.3781 18.9564L21.6492 20.1025L19.5258 18.7033L18.7734 18.3869L18.7805 18.3799L18.7875 18.3658C18.7875 18.3658 18.7945 18.3588 18.7945 18.3518L18.8016 18.3377C18.8016 18.3377 18.8086 18.3307 18.8086 18.3236L18.8156 18.3096L18.8227 18.2955L18.8297 18.2814L18.8367 18.2674C18.8367 18.2604 18.8367 18.2604 18.8367 18.2604L19.5961 18.5697L22.0852 19.09L19.6734 18.2885L18.8648 18.176L18.8719 18.1689V18.1549C18.8719 18.1479 18.8789 18.1479 18.8789 18.1479V18.1338L18.8859 18.1197C18.8859 18.1127 18.8859 18.1127 18.8859 18.1127L18.893 18.0986V18.0705C18.893 18.0635 18.893 18.0564 18.893 18.0564V18.0424L19.7086 18.1408L22.2469 17.9932L19.7086 17.8455L18.893 17.9439V17.9369C18.893 17.9299 18.893 17.9229 18.893 17.9229V17.9088L18.8859 17.8947C18.8859 17.8877 18.8859 17.8877 18.8859 17.8877L18.8789 17.8666V17.8596C18.8789 17.8525 18.8719 17.8455 18.8719 17.8455V17.8314L18.8648 17.8174L19.6734 17.7049L22.0852 16.9104L19.5961 17.4307L18.8367 17.74V17.733L18.8297 17.7189L18.8227 17.7049C18.8227 17.6979 18.8227 17.6979 18.8227 17.6979L18.8156 17.6838C18.8086 17.6768 18.8086 17.6697 18.8086 17.6697C18.8016 17.6627 18.8016 17.6557 18.8016 17.6557L18.7945 17.6416L18.7875 17.6275L18.7805 17.6205L19.5328 17.3041L21.6562 15.9119L19.3852 17.058L18.7312 17.5502C18.7312 17.5432 18.7242 17.5432 18.7242 17.5432L18.7102 17.5291L18.7031 17.515L18.6961 17.508C18.6891 17.501 18.6891 17.501 18.6891 17.501L18.675 17.4869L18.668 17.4799C18.668 17.4799 18.6609 17.4729 18.6539 17.4658L18.6469 17.4518L18.6398 17.4447L19.2867 16.9455L20.9812 15.0471L19.0688 16.7346L18.5625 17.3814L18.5555 17.3744L18.5414 17.3674L18.5344 17.3604C18.5273 17.3533 18.5273 17.3533 18.5273 17.3533L18.5133 17.3393L18.4992 17.3252L18.4922 17.3182L18.4781 17.3111L18.4641 17.3041L18.457 17.2971L18.9492 16.6432L20.0953 14.3721L18.6961 16.4955L18.3797 17.2479L18.3727 17.2408C18.3656 17.2408 18.3656 17.2338 18.3656 17.2338L18.3516 17.2268L18.3375 17.2197L18.3234 17.2127L18.3094 17.2057L18.2953 17.1986L18.2812 17.1916L18.2672 17.1846L18.2531 17.1775L18.5625 16.4182L19.0828 13.9291L18.2883 16.3408L18.1758 17.1494H18.1687C18.1617 17.1424 18.1547 17.1424 18.1547 17.1424L18.1406 17.1354C18.1406 17.1354 18.1336 17.1354 18.1266 17.1354L18.1125 17.1283H18.0984H18.0914L18.0773 17.1213H18.0633C18.0633 17.1213 18.0563 17.1213 18.0492 17.1213L18.1477 16.3127L18 13.7744L17.8523 16.3127L17.9508 17.1213H17.9437H17.9297L17.9156 17.1283H17.9016H17.8875L17.8734 17.1354H17.8594L17.8453 17.1424C17.8453 17.1424 17.8383 17.1424 17.8313 17.1494H17.8242L17.7117 16.3408L16.9172 13.9291L17.4375 16.4182L17.7469 17.1775L17.7328 17.1846L17.7187 17.1916L17.7047 17.1986L17.6906 17.2057C17.6906 17.2057 17.6836 17.2127 17.6766 17.2127L17.6625 17.2197L17.6484 17.2268L17.6414 17.2338C17.6344 17.2408 17.6273 17.2408 17.6273 17.2408L17.6133 17.2479L17.2969 16.4955L15.9047 14.3721L17.0508 16.6432L17.543 17.2971C17.5359 17.3041 17.5359 17.3041 17.5359 17.3041L17.5219 17.3182C17.5148 17.3182 17.5148 17.3252 17.5148 17.3252L17.5008 17.3322L17.4867 17.3463L17.4727 17.3533L17.4656 17.3604L17.4586 17.3674L17.4445 17.3744L17.4375 17.3814L16.9312 16.7346L15.0398 15.04L16.7344 16.9385L17.3812 17.4377L17.3742 17.4447L17.3672 17.4588C17.3602 17.4658 17.3602 17.4658 17.3602 17.4658L17.3531 17.4799L17.3391 17.4939C17.3391 17.4939 17.332 17.501 17.332 17.508L17.325 17.515L17.318 17.5291L17.3039 17.5432L17.2969 17.5502L16.643 17.058L14.3719 15.9119L16.4953 17.3041L17.2477 17.6205C17.2477 17.6275 17.2406 17.6275 17.2406 17.6275L17.2336 17.6416L17.2266 17.6557L17.2195 17.6627L17.2125 17.6768L17.2055 17.6908L17.1984 17.6979L17.1914 17.7119L17.1844 17.726V17.733L16.425 17.4236L13.9359 16.9033L16.3547 17.6979L17.1633 17.8104L17.1562 17.8244V17.8385L17.1492 17.8525V17.8596L17.1422 17.8736V17.8877L17.1352 17.9018V17.9158C17.1352 17.9158 17.1352 17.9229 17.1352 17.9299V17.9369L16.3195 17.8385L13.7812 17.9861L16.3195 18.1338L17.1352 18.0354V18.0494C17.1352 18.0494 17.1352 18.0564 17.1352 18.0635V18.0775L17.1422 18.0846V18.0986L17.1492 18.1127V18.1268C17.1492 18.1268 17.1562 18.1338 17.1562 18.1408V18.1549L17.1633 18.1619L16.3547 18.2744L13.9359 19.076L16.425 18.5557L17.1844 18.2463C17.1844 18.2463 17.1844 18.2533 17.1844 18.2604L17.1914 18.2744L17.1984 18.2885L17.2055 18.3025C17.2055 18.3096 17.2125 18.3096 17.2125 18.3096L17.2195 18.3307L17.2266 18.3447C17.2266 18.3518 17.2336 18.3518 17.2336 18.3518L17.2406 18.3658L17.2477 18.3729L16.4953 18.6893L14.3719 20.0885L16.643 18.9424L17.2969 18.4432L17.3039 18.4502C17.3109 18.4572 17.3109 18.4643 17.3109 18.4643L17.318 18.4783C17.325 18.4854 17.325 18.4854 17.325 18.4854C17.325 18.4854 17.332 18.4924 17.3391 18.4994L17.3531 18.5135L17.3602 18.5205C17.3602 18.5205 17.3672 18.5275 17.3742 18.5275C17.3742 18.5275 17.3812 18.5346 17.3812 18.5416L17.3883 18.5486L16.7414 19.0549L15.0469 20.9463L16.9383 19.2588L17.4445 18.6119C17.4516 18.6119 17.4516 18.6189 17.4516 18.6189C17.4586 18.626 17.4656 18.626 17.4656 18.626L17.4797 18.64L17.4867 18.6471L17.5008 18.6611L17.5148 18.6682L17.5219 18.6752C17.5219 18.6752 17.5289 18.6822 17.5359 18.6822L17.55 18.6893L17.557 18.6963L17.0648 19.3502L15.9187 21.6213L17.3109 19.4979L17.6273 18.7455L17.6344 18.7525C17.6414 18.7596 17.6484 18.7596 17.6484 18.7596L17.6555 18.7666L17.6695 18.7736L17.6836 18.7807C17.6906 18.7877 17.6906 18.7877 17.6906 18.7877L17.7047 18.7947L17.7187 18.8018C17.7187 18.8018 17.7258 18.8088 17.7328 18.8088L17.7469 18.8158L17.4375 19.5752L16.9172 22.0643L17.7117 19.6525L17.8242 18.8439L17.8313 18.851H17.8453L17.8594 18.858H17.8734L17.8875 18.865H17.9016C17.9086 18.8721 17.9086 18.8721 17.9086 18.8721H17.9227H17.9367H17.9437L17.8453 19.6877L17.993 22.226L18.1406 19.6877L18.0422 18.8721C18.0492 18.8721 18.0492 18.8721 18.0492 18.8721H18.0633H18.0773C18.0773 18.8721 18.0844 18.8721 18.0844 18.865H18.0984L18.1125 18.858C18.1195 18.858 18.1195 18.858 18.1195 18.858L18.1336 18.851H18.1477L18.1547 18.8439L18.2672 19.6525L19.0617 22.0643L18.5414 19.5752L18.232 18.8158L18.2461 18.8088C18.2531 18.8018 18.2531 18.8018 18.2531 18.8018L18.2672 18.7947L18.2812 18.7877L18.2953 18.7807L18.3094 18.7736L18.3234 18.7666L18.3305 18.7596L18.3445 18.7525L18.3516 18.7455L18.668 19.4979L20.0672 21.6213L18.9211 19.3502L18.4289 18.6963L18.4359 18.6893L18.45 18.6822L18.4641 18.6752C18.4711 18.6682 18.4711 18.6682 18.4711 18.6682L18.4852 18.6541L18.4992 18.64L18.5063 18.633L18.5133 18.626C18.5133 18.626 18.5203 18.6189 18.5273 18.6119L18.5344 18.6049L19.0406 19.2518L20.932 20.9393L19.2656 19.0689L18.6187 18.5627L18.6258 18.5557C18.6328 18.5486 18.6398 18.5486 18.6398 18.5416Z" fill="#000088"/>
<path d="M18 13.1836C15.3352 13.1836 13.1836 15.3422 13.1836 18C13.1836 20.6578 15.3422 22.8164 18 22.8164C20.6578 22.8164 22.8164 20.6578 22.8164 18C22.8164 15.3422 20.6648 13.1836 18 13.1836ZM22.1133 18.7734L22.1414 18.7805C22.0992 19.0055 22.043 19.2234 21.9656 19.4344C21.8672 19.3922 21.7477 19.4273 21.6984 19.5188C21.6352 19.6242 21.6703 19.7508 21.7758 19.8141C21.7758 19.8141 21.7969 19.8211 21.8039 19.8281C21.7055 20.032 21.593 20.2289 21.4664 20.4117C21.382 20.3414 21.2555 20.3484 21.1781 20.4258C21.1008 20.5031 21.1008 20.6437 21.1781 20.7281C21.1781 20.7281 21.1922 20.7422 21.1992 20.7492C21.0516 20.925 20.8898 21.0797 20.7211 21.2273C20.6578 21.143 20.5383 21.1148 20.4398 21.1711C20.3414 21.2344 20.2992 21.3609 20.3625 21.4594C20.3695 21.4734 20.3766 21.4734 20.3766 21.4734C20.1937 21.6141 20.0039 21.7266 19.793 21.818C19.7578 21.7195 19.6453 21.6633 19.5398 21.6914C19.4273 21.7266 19.357 21.8391 19.3922 21.9516L19.3992 21.9797C19.1883 22.05 18.9703 22.1133 18.7453 22.1555C18.7313 22.043 18.6469 21.9656 18.5344 21.9656C18.4148 21.9656 18.3234 22.057 18.3234 22.1766L18.3305 22.2047C18.218 22.2117 18.1125 22.2188 18 22.2188C17.8805 22.2188 17.768 22.2117 17.6555 22.2047C17.6695 22.0922 17.6062 21.9937 17.5008 21.9656C17.3812 21.9305 17.2687 22.0008 17.2406 22.1133L17.2336 22.1414C17.0086 22.0992 16.7906 22.043 16.5797 21.9656C16.6219 21.8672 16.5867 21.7547 16.4953 21.6984C16.3898 21.6352 16.2633 21.6773 16.207 21.7758C16.2 21.7828 16.193 21.7969 16.193 21.7969C15.9891 21.7055 15.7922 21.593 15.6094 21.4664C15.6727 21.382 15.6727 21.2625 15.5953 21.1781C15.5109 21.1008 15.3773 21.1008 15.2859 21.1781C15.2859 21.1781 15.2719 21.1922 15.2719 21.1992C15.1031 21.0516 14.9414 20.8898 14.7937 20.7211C14.8781 20.6578 14.9062 20.5383 14.85 20.4469C14.7867 20.3414 14.6602 20.3063 14.5617 20.3695C14.5477 20.3766 14.5477 20.3836 14.5477 20.3836C14.407 20.2078 14.3016 20.0109 14.2031 19.8C14.3016 19.7648 14.3578 19.6523 14.3297 19.5469C14.3016 19.4344 14.182 19.3641 14.0695 19.3992C14.0555 19.3992 14.0484 19.4062 14.0344 19.4062C13.9641 19.1953 13.9008 18.9773 13.8586 18.7594C13.9711 18.7453 14.0555 18.6609 14.0555 18.5484C14.0555 18.4289 13.957 18.3375 13.8375 18.3375C13.8375 18.3375 13.8234 18.3375 13.8094 18.3445C13.8023 18.232 13.7953 18.1266 13.7953 18.0141C13.7953 17.8945 13.8023 17.782 13.8094 17.6695C13.9148 17.6836 14.0203 17.6203 14.0484 17.5148C14.0766 17.3953 14.0063 17.2828 13.8938 17.2547L13.8516 17.2266C13.8938 17.0016 13.95 16.7836 14.0273 16.5797C14.1258 16.6219 14.2453 16.5867 14.2945 16.4883C14.3578 16.3898 14.3156 16.2562 14.2172 16.2L14.1891 16.1859C14.2875 15.982 14.4 15.7922 14.5266 15.6023C14.6109 15.6656 14.7375 15.6656 14.8148 15.5883C14.8922 15.5039 14.8922 15.3703 14.8148 15.2859C14.8078 15.2789 14.8008 15.2719 14.8008 15.2719C14.9414 15.0891 15.1031 14.9344 15.2719 14.7867C15.3352 14.8711 15.4547 14.8992 15.5531 14.843C15.6516 14.7867 15.6938 14.6531 15.6305 14.5547L15.6164 14.5336C15.7992 14.407 15.9961 14.2945 16.2 14.1961C16.2352 14.2945 16.3477 14.3508 16.4531 14.3227C16.5656 14.2875 16.6359 14.175 16.6008 14.0625C16.6008 14.0625 16.5938 14.0414 16.5938 14.0273C16.8047 13.957 17.0227 13.8938 17.2477 13.8586C17.2617 13.9641 17.3461 14.0484 17.4586 14.0484C17.5781 14.0484 17.6695 13.95 17.6695 13.8375C17.6695 13.8234 17.6695 13.8164 17.6695 13.8164C17.775 13.7953 17.8805 13.7953 17.993 13.7953C18.1125 13.7953 18.225 13.8023 18.3445 13.8094C18.3305 13.9148 18.3938 14.0133 18.4992 14.0484C18.6188 14.0766 18.7312 14.0063 18.7594 13.8938C18.7594 13.8938 18.7664 13.8727 18.7664 13.8656C18.9914 13.9078 19.2094 13.9641 19.4203 14.0414C19.3781 14.1398 19.4133 14.2594 19.5047 14.3156C19.6102 14.3719 19.7367 14.3367 19.793 14.2383L19.807 14.2102C20.0109 14.3086 20.2078 14.4211 20.3906 14.5547C20.3203 14.632 20.3273 14.7586 20.4047 14.8359C20.4891 14.9203 20.6297 14.9203 20.707 14.8359L20.7281 14.8148C20.8969 14.9625 21.0586 15.1242 21.2063 15.293C21.1219 15.3563 21.0937 15.4758 21.15 15.5742C21.2133 15.6727 21.3398 15.7148 21.4383 15.6516L21.4594 15.6375C21.5859 15.8203 21.6984 16.0172 21.7969 16.2211C21.6984 16.2633 21.6422 16.3688 21.6703 16.4742C21.7055 16.5867 21.818 16.657 21.9305 16.6289L21.9586 16.6148C22.0289 16.8258 22.0922 17.0438 22.1344 17.2688C22.0219 17.2828 21.9445 17.3672 21.9445 17.4797C21.9445 17.5992 22.0359 17.6906 22.1555 17.6906H22.1836C22.1906 17.7961 22.1977 17.9016 22.1977 18.0141C22.1977 18.1336 22.1906 18.2461 22.1836 18.3656C22.0711 18.3516 21.9727 18.4148 21.9445 18.5203C21.9305 18.6187 22.0008 18.7383 22.1133 18.7734Z" fill="#000088"/>
</svg>
