<svg width="90" height="24" viewBox="0 0 90 24" fill="none" xmlns="http://www.w3.org/2000/svg">
<path d="M1.88297 5.12364H5.1581V17.4489H10.9327V19.6462H1.88297V5.12364Z" fill="white"/>
<path d="M15.565 6.74C15.565 7.64505 14.897 8.37774 13.7981 8.37774C12.7638 8.37774 12.0958 7.64522 12.0958 6.74C12.0958 5.8134 12.7854 5.10226 13.8412 5.10226C14.897 5.10226 15.5435 5.81357 15.565 6.74ZM12.1821 19.6463V9.85722H15.4574V19.6463H12.1821Z" fill="white"/>
<path d="M17.5038 13.0318C17.5038 11.7174 17.4605 10.8054 17.4176 9.85739H20.4054L20.4127 11.1358H20.4774C20.9084 10.4463 21.964 9.43356 23.731 9.43356C25.8856 9.43356 27.5017 10.8772 27.5017 13.98V19.6464H24.2266V14.3678C24.2266 13.0103 23.7525 12.0838 22.5673 12.0838C21.6624 12.0838 21.1237 12.7087 20.8866 13.3122C20.8004 13.5277 20.779 13.8294 20.779 14.131V19.6466H17.5038V13.0318V13.0318Z" fill="white"/>
<path d="M32.8235 14.109H32.8665C33.1035 13.6567 33.3621 13.2257 33.6207 12.8379L35.7539 9.85722H39.6969L35.9261 13.9369L40.2355 19.6463H36.2063L33.6423 15.8758L32.8235 16.9099V19.6461H29.5484V4.34782H32.8235V14.109Z" fill="white"/>
<path d="M42.8643 15.9837C42.9504 17.3412 44.308 17.9875 45.8379 17.9875C46.9583 17.9875 47.8633 17.8365 48.7468 17.5348L49.1777 19.1936C48.1005 19.6461 46.7863 19.8616 45.364 19.8616C41.7873 19.8616 39.7402 18.3537 39.7402 15.0569C39.7402 12.385 41.3993 9.80696 45.0623 9.80696C48.4668 9.80696 49.7597 12.0833 49.7597 14.6906C49.7597 15.2508 49.6951 15.7463 49.652 15.9835H42.8643V15.9837ZM46.721 13.7428C46.721 12.9456 46.3763 11.6096 44.8682 11.6096C43.4892 11.6096 42.9289 12.881 42.8428 13.7428H46.721Z" fill="white"/>
<path d="M61.5383 4.34799V17.061C61.5383 18.2459 61.5816 18.9351 61.6245 19.6463H58.7155L58.5864 18.1165H58.5217C57.8753 19.2798 56.5826 19.8833 55.225 19.8833C52.7256 19.8833 50.7216 18.3106 50.7216 15.0356C50.7002 11.4805 52.9195 9.41199 55.4405 9.41199C56.7549 9.41199 57.7459 9.8859 58.22 10.597H58.2631V4.34799H61.5383V4.34799ZM58.2633 14.1306C58.2633 13.9583 58.2633 13.7212 58.2202 13.5275C58.0263 12.6654 57.3151 11.933 56.3024 11.933C54.7943 11.933 54.0402 13.269 54.0402 14.9282C54.0402 16.7163 54.9235 17.8369 56.2809 17.8369C57.229 17.8369 58.0047 17.1904 58.1986 16.264C58.2417 16.0269 58.2633 15.7683 58.2633 15.5097V14.1306V14.1306Z" fill="white"/>
<path d="M85.9221 1.21739H66.1527C65.6703 1.21739 65.2758 1.61218 65.2758 2.09426V21.8638C65.2758 22.3461 65.6703 22.7407 66.1527 22.7407H85.9221C86.4045 22.7407 86.7989 22.3461 86.7989 21.8638V2.09409C86.7989 1.612 86.4045 1.21739 85.9221 1.21739ZM72.2089 18.7779H69.2216V9.14748H72.2089V18.7779ZM70.7395 8.08122C69.796 8.08122 69.1868 7.41304 69.1868 6.58765C69.1868 5.74261 69.8156 5.09392 70.7788 5.09392C71.7417 5.09392 72.3316 5.74261 72.3509 6.58765C72.3511 7.41304 71.7419 8.08122 70.7395 8.08122ZM83.2875 18.779H80.2998V13.6325C80.2998 12.3944 79.8675 11.5492 78.7864 11.5492C77.961 11.5492 77.4699 12.1191 77.2537 12.6694C77.1751 12.8659 77.1555 13.1412 77.1555 13.4163V18.7772H74.168V12.4141C74.168 11.2153 74.1287 10.0124 74.0894 9.14748H77.0433L77.0403 10.6847H77.1433C77.5362 10.0557 78.236 9.132 79.848 9.132C81.8132 9.132 83.2875 10.4487 83.2875 13.279V18.779V18.779Z" fill="white"/>
</svg>
