<svg width="48" height="48" viewBox="0 0 48 48" fill="none" xmlns="http://www.w3.org/2000/svg">
<path d="M24 6C20.625 6 18.3516 7.33008 16.3125 8.4375C14.2734 9.54492 12.4219 10.5 9 10.5H7.5V12C7.5 23.5781 11.4141 31.1133 15.375 35.6719C19.3359 40.2305 23.4375 41.9062 23.4375 41.9062L24 42.0938L24.5625 41.9062C24.5625 41.9062 28.6641 40.2656 32.625 35.7188C36.5859 31.1719 40.5 23.6191 40.5 12V10.5H39C35.5957 10.5 33.7266 9.54492 31.6875 8.4375C29.6484 7.33008 27.375 6 24 6ZM24 9C26.625 9 28.1309 9.91992 30.2344 11.0625C32.0098 12.0293 34.3652 12.9551 37.4062 13.2656C37.1191 23.4141 33.7617 29.8652 30.375 33.75C27.3047 37.2715 24.7266 38.4434 24 38.7656C23.2676 38.4375 20.6953 37.2363 17.625 33.7031C14.2383 29.8066 10.8809 23.3672 10.5938 13.2656C13.6465 12.9551 15.9902 12.0293 17.7656 11.0625C19.8691 9.91992 21.375 9 24 9Z" fill="white"/>
<path d="M22.5 24.4219L31.9219 15L34.0781 17.1562L23.5781 27.6562L22.5 28.6875L21.4219 27.6562L15.4219 21.6562L17.5781 19.5L22.5 24.4219Z" fill="white"/>
</svg>
