<svg width="48" height="48" viewBox="0 0 48 48" fill="none" xmlns="http://www.w3.org/2000/svg">
<path d="M24 6L23.4375 6.23438L14.4375 9.84375L13.5 10.2188V20.2969L5.39062 23.8125L4.5 24.2344V36.3281L5.25 36.7969L14.25 41.8125L14.9531 42.1875L15.6562 41.8594L24 37.6875L32.3438 41.8594L33.0469 42.1875L33.75 41.8125L42.75 36.7969L43.5 36.3281V24.2344L42.6094 23.8125L34.5 20.2969V10.2188L33.5625 9.84375L24.5625 6.23438L24 6ZM24 9.28125L28.9219 11.2031L24 13.125L19.0781 11.2031L24 9.28125ZM16.5 13.4062L22.5 15.7031V23.0156L16.5 20.3438V13.4062ZM31.5 13.4062V20.3438L25.5 23.0156V15.7031L31.5 13.4062ZM15 22.9688L20.4375 25.3594L15 28.0312L9.5625 25.3125L15 22.9688ZM33 22.9688L38.4375 25.3125L33 28.0312L27.5625 25.3594L29.25 24.6094L33 22.9688ZM7.5 27.6094L13.5 30.6094V37.9688L7.5 34.5938V27.6094ZM40.5 27.6094V34.5938L34.5 37.9688V30.6094L40.5 27.6094ZM22.5 27.7031V35.0625L16.5 38.0625V30.6094L22.5 27.7031ZM25.5 27.7031L31.5 30.6094V38.0625L25.5 35.0625V27.7031Z" fill="white"/>
</svg>
