<svg width="48" height="48" viewBox="0 0 48 48" fill="none" xmlns="http://www.w3.org/2000/svg">
<path d="M9 4.5V43.5H39V14.3994L38.5488 13.9512L29.5488 4.95117L29.1006 4.5H9ZM12 7.5H27V16.5H36V40.5H12V7.5ZM30 9.60059L33.8994 13.5H30V9.60059ZM15 13.5V16.5H24V13.5H15ZM15 19.5V22.5H33V19.5H15ZM20.25 24C18.9 24 17.85 24.9012 17.25 25.9512C16.65 27.0012 16.5 28.3506 16.5 29.8506C16.5 30.7506 16.8012 31.6488 16.9512 32.5488C16.3512 32.6988 15.75 33.1494 15 33.1494V36.1494C16.05 36.1494 17.1 36.0012 18 35.7012C18.15 36.0012 18.1512 36.1512 18.4512 36.4512C19.0512 37.0512 19.95 37.5 21 37.5C23.4 37.5 24.9012 35.8494 25.9512 34.6494C26.1012 34.3494 26.2494 34.1988 26.3994 34.0488C26.3994 34.1988 26.3988 34.35 26.5488 34.5C26.6988 34.8 26.8494 35.0994 27.1494 35.3994C27.4494 35.6994 28.05 36 28.5 36C29.4 36 29.9988 35.4006 30.2988 35.1006C30.5988 34.8006 30.9012 34.3488 31.2012 34.0488C31.8012 33.4488 32.2506 33 32.8506 33V30C31.0506 30 29.7012 31.0512 28.9512 31.9512C28.9512 31.8012 28.9488 31.65 28.7988 31.5C28.6488 31.2 28.5012 30.9012 28.2012 30.4512C27.9012 30.0012 27.45 30 27 30C25.8 30 25.3494 30.7512 24.8994 31.2012C24.4494 31.6512 24.0012 32.2506 23.7012 32.8506C22.8012 33.9006 22.2 34.5 21 34.5C20.85 34.5 20.8512 34.3506 20.7012 34.3506C20.8512 34.3506 20.85 34.2012 21 34.2012C22.65 32.8512 24 31.0494 24 28.6494C24 27.4494 23.7006 26.4 23.1006 25.5C22.5006 24.6 21.45 24 20.25 24ZM20.1006 27C20.5506 27 20.5512 26.9988 20.7012 27.2988C20.8512 27.5988 21 28.0488 21 28.7988C21 29.6988 20.5488 30.6006 19.7988 31.3506C19.7988 30.9006 19.5 30.3 19.5 30C19.5 28.8 19.6512 27.9012 19.9512 27.4512C20.1012 27.1512 20.1006 27 20.1006 27Z" fill="white"/>
</svg>
