<svg width="48" height="48" viewBox="0 0 48 48" fill="none" xmlns="http://www.w3.org/2000/svg">
<path d="M24 4.5C23.0625 4.5 22.1309 4.81641 21.3281 5.39062L18.8438 7.125L15.9844 7.5H15.9375L15.8906 7.54688C13.9805 7.97461 12.4746 9.48047 12.0469 11.3906L12 11.4375V11.4844L11.625 14.3906L9.89062 16.6406L9.84375 16.6875V16.7344C8.79492 18.4102 8.74805 20.5723 9.89062 22.1719L11.6719 24.6562L12.1406 27.2344L7.3125 34.5938L5.76562 36.8906H12.9375L14.6719 40.9219L15.75 43.5L17.2969 41.1562L22.0312 34.0312C23.3027 34.5527 24.7383 34.5996 25.9688 34.0312L30.7031 41.1562L32.25 43.5L33.3281 40.9219L35.0625 36.8906H42.2344L40.6875 34.5938L36 27.4688L36.375 24.6562L38.1094 22.1719L38.1562 22.125V22.0781C39.2051 20.4023 39.252 18.2871 38.1094 16.6875L36.375 14.2031L35.8125 11.3906H35.8594C35.8535 11.3555 35.8184 11.332 35.8125 11.2969C35.543 9.33398 33.9902 7.74023 32.0156 7.5H31.9688L29.1562 7.125L26.6719 5.39062C25.8691 4.81641 24.9375 4.5 24 4.5ZM24 7.54688C24.3457 7.54688 24.6855 7.65234 24.9375 7.82812L27.6094 9.75L27.9375 9.98438L28.3125 10.0312L31.5938 10.5H31.6406C32.3145 10.5762 32.7832 11.0449 32.8594 11.7188V11.8125L33.4688 15.1406L33.5156 15.4688L33.75 15.75L35.6719 18.4219C36.0293 18.9199 36.0762 19.7637 35.625 20.4844L33.5156 23.4375L33.4688 23.8125L33 27.0938V27.1406C32.9707 27.3867 32.8887 27.6152 32.7656 27.7969L32.6719 27.8438V27.8906C32.4551 28.1484 32.1562 28.3184 31.7812 28.3594H31.6875L28.2656 28.9688L27.8906 29.0156L27.6094 29.25L24.9375 31.1719C24.4395 31.5293 23.5488 31.5762 22.8281 31.125L20.3906 29.25L20.1094 29.0156L19.6875 28.9688L16.4062 28.5H16.3594C15.8965 28.4473 15.5391 28.207 15.3281 27.8438C15.2344 27.6797 15.1641 27.4863 15.1406 27.2812V27.1875L14.5312 23.7656L14.4844 23.3906L14.25 23.1094L12.3281 20.4375C11.9707 19.9395 11.9238 19.0488 12.375 18.3281L14.25 15.8906L14.4844 15.6094L14.5312 15.1875L14.9531 12.0469C14.959 12.0234 14.9941 12.0234 15 12C15.1875 11.2676 15.7676 10.6875 16.5 10.5C16.5234 10.4941 16.5234 10.459 16.5469 10.4531L19.6875 10.0312L20.0625 9.98438L20.3906 9.75L23.0625 7.82812C23.3145 7.65234 23.6543 7.54688 24 7.54688ZM34.3594 30.375L36.6562 33.8906H33.0469L32.6719 34.8281L31.6406 37.2188L28.4531 32.3438L29.1562 31.8281L32.1094 31.3125V31.3594C32.1445 31.3535 32.168 31.3184 32.2031 31.3125C33.0117 31.2012 33.7441 30.8613 34.3594 30.375ZM13.6406 30.4219C14.2793 30.9961 15.0938 31.3945 15.9844 31.5C16.002 31.5 16.0137 31.5 16.0312 31.5L18.8906 31.875L19.5469 32.3906L16.3594 37.2188L15.3281 34.8281L14.9531 33.8906H11.3438L13.6406 30.4219Z" fill="white"/>
<path d="M19.8321 24.143C19.3901 24.143 18.9481 24.0997 18.5061 24.013C18.0641 23.9263 17.6828 23.805 17.3621 23.649C17.0848 23.519 16.8898 23.3587 16.7771 23.168C16.6731 22.9773 16.6298 22.7823 16.6471 22.583C16.6644 22.3837 16.7338 22.206 16.8551 22.05C16.9851 21.894 17.1498 21.79 17.3491 21.738C17.5571 21.6773 17.7911 21.7033 18.0511 21.816C18.3718 21.9547 18.6664 22.05 18.9351 22.102C19.2038 22.154 19.4724 22.18 19.7411 22.18C20.0531 22.18 20.3131 22.1453 20.5211 22.076C20.7291 22.0067 20.8851 21.9027 20.9891 21.764C21.0931 21.6167 21.1451 21.4347 21.1451 21.218C21.1451 20.9147 21.0368 20.6937 20.8201 20.555C20.6121 20.4077 20.3044 20.334 19.8971 20.334H19.1951C18.8658 20.334 18.6144 20.2517 18.4411 20.087C18.2678 19.9223 18.1811 19.6883 18.1811 19.385C18.1811 19.0817 18.2678 18.8477 18.4411 18.683C18.6144 18.5183 18.8658 18.436 19.1951 18.436H19.6631C19.9144 18.436 20.1268 18.4013 20.3001 18.332C20.4821 18.2627 20.6208 18.163 20.7161 18.033C20.8114 17.8943 20.8591 17.7253 20.8591 17.526C20.8591 17.24 20.7551 17.0233 20.5471 16.876C20.3478 16.7287 20.0488 16.655 19.6501 16.655C19.4074 16.655 19.1604 16.681 18.9091 16.733C18.6578 16.785 18.3891 16.876 18.1031 17.006C17.8778 17.1013 17.6698 17.123 17.4791 17.071C17.2971 17.019 17.1454 16.9193 17.0241 16.772C16.9114 16.616 16.8421 16.447 16.8161 16.265C16.7901 16.0743 16.8204 15.888 16.9071 15.706C16.9938 15.524 17.1584 15.3723 17.4011 15.251C17.7651 15.069 18.1594 14.9303 18.5841 14.835C19.0174 14.7397 19.4508 14.692 19.8841 14.692C20.5688 14.692 21.1538 14.7917 21.6391 14.991C22.1244 15.1903 22.4928 15.4807 22.7441 15.862C23.0041 16.2347 23.1341 16.6853 23.1341 17.214C23.1341 17.5607 23.0691 17.8813 22.9391 18.176C22.8091 18.4707 22.6184 18.7177 22.3671 18.917C22.1158 19.1077 21.8211 19.2463 21.4831 19.333V19.151C22.0898 19.2463 22.5621 19.502 22.9001 19.918C23.2468 20.3253 23.4201 20.8367 23.4201 21.452C23.4201 22.0067 23.2771 22.4877 22.9911 22.895C22.7051 23.3023 22.2934 23.6143 21.7561 23.831C21.2188 24.039 20.5774 24.143 19.8321 24.143Z" fill="white"/>
<path d="M27.9 24.143C26.7733 24.143 25.9067 23.7313 25.3 22.908C24.702 22.076 24.403 20.9017 24.403 19.385C24.403 18.3623 24.5373 17.5043 24.806 16.811C25.0747 16.109 25.469 15.5803 25.989 15.225C26.509 14.8697 27.146 14.692 27.9 14.692C29.0353 14.692 29.902 15.0907 30.5 15.888C31.098 16.6853 31.397 17.8467 31.397 19.372C31.397 20.386 31.2627 21.2483 30.994 21.959C30.7253 22.6697 30.331 23.2113 29.811 23.584C29.291 23.9567 28.654 24.143 27.9 24.143ZM27.9 22.245C28.316 22.245 28.6237 22.0197 28.823 21.569C29.031 21.1097 29.135 20.3773 29.135 19.372C29.135 18.3753 29.031 17.6647 28.823 17.24C28.6237 16.8067 28.316 16.59 27.9 16.59C27.484 16.59 27.172 16.8067 26.964 17.24C26.7647 17.6647 26.665 18.3753 26.665 19.372C26.665 20.3773 26.7647 21.1097 26.964 21.569C27.172 22.0197 27.484 22.245 27.9 22.245Z" fill="white"/>
</svg>
