<svg width="24" height="24" viewBox="0 0 24 24" fill="none" xmlns="http://www.w3.org/2000/svg">
<g clip-path="url(#clip0_73_18)">
<path d="M19.125 12.3751C20.4692 12.3751 21.5588 11.2854 21.5588 9.94132C21.5588 8.5972 20.4692 7.50757 19.125 7.50757C17.7809 7.50757 16.6913 8.5972 16.6913 9.94132C16.6913 11.2854 17.7809 12.3751 19.125 12.3751Z" fill="#D88600"/>
<path d="M4.87503 12.3751C6.21916 12.3751 7.30878 11.2854 7.30878 9.94132C7.30878 8.5972 6.21916 7.50757 4.87503 7.50757C3.53091 7.50757 2.44128 8.5972 2.44128 9.94132C2.44128 11.2854 3.53091 12.3751 4.87503 12.3751Z" fill="#D88600"/>
<path d="M6.48751 14.8557C6.43376 14.932 6.38126 15.0095 6.33001 15.0882C5.62335 16.1787 5.24819 17.4507 5.25001 18.7501H18.75C18.7514 17.4574 18.3796 16.1917 17.6794 15.1051C17.6281 15.0263 17.5756 14.9488 17.5219 14.8726C16.8985 13.9904 16.0725 13.2707 15.1132 12.774C14.154 12.2773 13.0896 12.0181 12.0094 12.0181C10.9292 12.0181 9.86475 12.2773 8.90552 12.774C7.94629 13.2707 7.12028 13.9904 6.49688 14.8726L6.48751 14.8557Z" fill="#D88600"/>
<path d="M0 17.25H3.88875C4.21843 15.4735 5.1222 13.8544 6.46125 12.6413C5.72714 12.3887 4.94332 12.315 4.17501 12.4265C3.4067 12.538 2.67612 12.8313 2.04408 13.2822C1.41204 13.733 0.896804 14.3283 0.541263 15.0184C0.185722 15.7086 0.000153044 16.4737 0 17.25H0Z" fill="#D88600"/>
<path d="M12 12C13.8608 12 15.3694 10.4915 15.3694 8.63061C15.3694 6.76975 13.8608 5.26123 12 5.26123C10.1391 5.26123 8.63062 6.76975 8.63062 8.63061C8.63062 10.4915 10.1391 12 12 12Z" fill="#D88600"/>
<path d="M19.1249 12.375C18.5851 12.3753 18.0491 12.4653 17.5387 12.6412C18.8777 13.8543 19.7815 15.4735 20.1112 17.25H23.9999C23.9999 15.9571 23.4863 14.7171 22.5721 13.8029C21.6579 12.8886 20.4179 12.375 19.1249 12.375Z" fill="#D88600"/>
</g>
<defs>
<clipPath id="clip0_73_18">
<rect width="24" height="24" fill="white"/>
</clipPath>
</defs>
</svg>
