<svg width="131" height="131" viewBox="0 0 131 131" fill="none" xmlns="http://www.w3.org/2000/svg">
<path d="M119.81 47.6022L119.674 46.6852L119.532 46.718C118.562 42.1823 116.328 38.0139 113.088 34.6952C109.847 31.3764 105.734 29.0429 101.223 27.9647C96.7115 26.8864 91.9873 27.1075 87.5965 28.6023C83.2058 30.0972 79.328 32.8046 76.4119 36.4115C73.4958 40.0183 71.6605 44.3771 71.1185 48.9836C70.5764 53.59 71.3496 58.2558 73.3488 62.4411C75.3479 66.6263 78.4912 70.16 82.415 72.6333C86.3388 75.1066 90.8827 76.4183 95.5209 76.4167C96.7381 76.4167 97.9062 76.2312 99.0688 76.062C98.6922 77.3283 98.3046 78.6165 97.6824 79.7736C97.0601 81.4548 96.0886 82.9122 95.1224 84.3805C94.3146 85.9688 92.89 87.0441 91.842 88.4032C90.7449 89.7242 89.2493 90.603 88.0648 91.7001C86.9022 92.8463 85.3793 93.4195 84.1676 94.2273C82.9012 94.9533 81.7986 95.7556 80.6196 96.1377L77.6776 97.3495L75.0903 98.4248L77.7322 109.008L80.9908 108.222C82.0334 107.96 83.3051 107.655 84.7516 107.289C86.2308 107.016 87.8083 106.268 89.5659 105.586C91.2961 104.806 93.3103 104.287 95.177 103.037C97.0547 101.847 99.2216 100.854 101.132 99.2599C102.982 97.6169 105.215 96.1923 106.863 94.1072C108.665 92.1531 110.444 90.1008 111.825 87.7646C113.424 85.5376 114.51 83.0923 115.657 80.6742C116.694 78.2562 117.529 75.7836 118.211 73.3819C119.505 68.5677 120.083 63.9936 120.307 60.08C120.493 56.1609 120.384 52.9023 120.154 50.5443C120.078 49.5595 119.963 48.5781 119.81 47.6022ZM59.7688 47.6022L59.6324 46.6852L59.4904 46.718C58.5205 42.1823 56.2862 38.0139 53.046 34.6952C49.8058 31.3764 45.6921 29.0429 41.181 27.9647C36.6698 26.8864 31.9456 27.1075 27.5548 28.6023C23.1641 30.0972 19.2864 32.8046 16.3702 36.4115C13.4541 40.0183 11.6189 44.3771 11.0768 48.9836C10.5347 53.59 11.308 58.2558 13.3071 62.4411C15.3063 66.6263 18.4496 70.16 22.3734 72.6333C26.2971 75.1066 30.841 76.4183 35.4792 76.4167C36.6964 76.4167 37.8645 76.2312 39.0271 76.062C38.6505 77.3283 38.263 78.6165 37.6407 79.7736C37.0185 81.4548 36.0469 82.9122 35.0808 84.3805C34.2729 85.9688 32.8483 87.0441 31.8003 88.4032C30.7032 89.7242 29.2076 90.603 28.0231 91.7001C26.8605 92.8463 25.3376 93.4195 24.1259 94.2273C22.8596 94.9533 21.757 95.7556 20.578 96.1377L17.6359 97.3495C15.993 98.0208 15.0541 98.4138 15.0541 98.4138L17.696 108.998L20.9546 108.212C21.9971 107.95 23.2689 107.644 24.7154 107.278C26.1946 107.005 27.7721 106.257 29.5296 105.575C31.2599 104.795 33.2741 104.276 35.1408 103.026C37.0185 101.836 39.1854 100.843 41.0958 99.249C42.9462 97.606 45.1787 96.1814 46.8271 94.0963C48.6283 92.1422 50.4078 90.0899 51.7887 87.7537C53.388 85.5267 54.4742 83.0814 55.6205 80.6633C56.6576 78.2453 57.4927 75.7727 58.175 73.371C59.4686 68.5568 60.0472 63.9827 60.271 60.069C60.4566 56.15 60.3474 52.8913 60.1181 50.5333C60.0366 49.5524 59.9201 48.5748 59.7688 47.6022Z" fill="#F1F1F0"/>
</svg>
