<svg width="36" height="36" viewBox="0 0 36 36" fill="none" xmlns="http://www.w3.org/2000/svg">
<path d="M36 18C36 21.276 35.136 24.336 33.588 27C30.492 32.4 24.66 36 18 36C11.34 36 5.508 32.4 2.412 27C0.864 24.336 0 21.276 0 18C0 14.724 0.864 11.628 2.412 9C5.508 3.6 11.34 0 18 0C24.66 0 30.492 3.6 33.588 9C35.136 11.628 36 14.724 36 18Z" fill="#DF1F26"/>
<path d="M15.66 24.1561C16.488 24.1561 17.28 24.0121 18 23.6881C16.56 25.0921 14.616 25.9201 12.456 25.9201C9.504 25.9201 6.948 24.3361 5.58 21.9601C4.896 20.8081 4.5 19.4401 4.5 18.0001C4.5 16.5601 4.896 15.1921 5.58 14.0401C6.948 11.6641 9.54 10.0801 12.456 10.0801C14.616 10.0801 16.56 10.9441 18 12.3121C17.28 12.0241 16.488 11.8441 15.66 11.8441C13.392 11.8441 11.376 13.0681 10.332 14.9401C9.792 15.8401 9.504 16.8841 9.504 18.0001C9.504 19.1161 9.792 20.1601 10.332 21.0961C11.376 22.9321 13.392 24.1561 15.66 24.1561Z" fill="white"/>
<path d="M21.024 15.9483L23.04 14.9043L22.644 17.1363L24.264 18.7203L22.032 19.0443L21.024 21.0963L20.016 19.0443L17.748 18.7203L19.368 17.1363L19.008 14.9043L21.024 15.9483Z" fill="white"/>
</svg>
